<svg width="128" height="112" viewBox="0 0 128 112" fill="none" xmlns="http://www.w3.org/2000/svg">
<g clip-path="url(#clip0_2213_9072)">
<mask id="mask0_2213_9072" style="mask-type:luminance" maskUnits="userSpaceOnUse" x="0" y="0" width="128" height="112">
<path d="M0 0H128V112H0V0Z" fill="white"/>
</mask>
<g mask="url(#mask0_2213_9072)">
<path d="M9.40004 35.5999C7.90004 40.3999 7.00004 48.1999 12 51.4999C15.2286 53.2866 19.0025 53.8207 22.6 52.9999C27.5 51.6999 29.6 45.1999 30.5 40.6999C31.1 38.5999 31.3 35.9999 31.6 33.6999C31.8 32.0999 30.9 28.2999 32.1 26.8999C33.4 25.2999 34.9 26.8999 36.5 27.7999C40.5 29.7999 46.2 29.2999 50.7 29.7999C56.3 30.2999 62 29.4999 67.7 29.5999C73.3 29.5999 81.8 30.8999 85.7 25.3999C84.1 32.1999 81.7 44.6999 87.5 50.1999C89.0235 48.6055 90.8798 47.3667 92.9366 46.5716C94.9935 45.7765 97.2003 45.4447 99.4 45.5999C101.9 45.5999 103 46.1999 104.6 43.7999C105.831 41.7809 106.488 39.4644 106.5 37.0999C106.7 30.6999 100.7 17.6999 92.5 19.1999C95.9 15.3999 92.8 9.59986 88.9 7.19986C81.9 2.99986 74.3 2.39986 66.3 1.59986C53.9084 -0.191553 41.263 1.39776 29.7 6.19986C27.7 6.99986 24.9 8.19986 23.2 9.59986C19.7 12.6999 19.5 18.8999 22.1 22.4999C17.3 21.6999 10.5 31.6999 9.40004 35.4999V35.5999Z" fill="black"/>
<path d="M14.0999 52.3995C5.59993 47.9995 -0.900073 56.4995 1.39993 65.7995C3.89993 75.3995 17.6999 75.5995 24.1999 70.5995C23.5999 77.7995 31.9999 86.9995 38.9999 88.4995C46.5999 89.8995 54.3999 89.3995 55.7999 99.5995C56.7999 90.3995 62.2999 89.7995 70.8999 88.1995C81.6999 86.1995 86.4999 77.5995 90.4999 68.6995C100.5 73.3995 110.2 60.2995 109.9 53.5995C109.3 43.2995 97.1999 42.0995 87.5999 49.8995C83.3999 42.7995 84.9999 32.9995 85.4999 25.1995C78.1999 30.6995 68.1999 29.3995 61.4999 29.4995C51.9999 29.6995 41.5999 30.5995 32.4999 26.4995C32.0999 32.2995 31.1999 36.7995 29.8999 44.4995C28.7999 51.1995 20.8999 54.4995 15.0999 52.8995C7.89993 50.8995 8.19993 39.4995 10.6999 34.2995C13.0999 29.4995 16.9999 23.9995 22.6999 23.2995C17.3999 18.0995 20.9999 12.4995 25.6999 9.29947C34.5916 3.99426 44.8602 1.45322 55.1999 1.99947C63.8999 2.49947 75.1999 1.69947 83.5999 4.39947C87.2999 5.59947 97.6999 12.4995 92.5999 18.8995C103.2 19.1995 111.6 37.3995 103.6 44.4995" stroke="black" stroke-width="2" stroke-linecap="round" stroke-linejoin="round"/>
<path d="M46.5 69.5C48.8 76 59.7 74.1 62.9 69.5M42.5 89.6C39.2 96.3 34.7 103.9 33.1 110.6C41.2496 109.502 49.1781 107.141 56.6 103.6C63.7169 106.346 71.0853 108.389 78.6 109.7C76.5 101.7 74 96.3 70.3 89.2M9.5 62.2C11.5 62.2 13.2 61.8 15.2 61.7M96 56.5C96.8 56.7 98.4 55.8 99.8 55.5" stroke="black" stroke-width="2" stroke-linecap="round" stroke-linejoin="round"/>
</g>
</g>
<defs>
<clipPath id="clip0_2213_9072">
<rect width="128" height="112" fill="white"/>
</clipPath>
</defs>
</svg>
