<svg width="25" height="43" viewBox="0 0 25 43" fill="none" xmlns="http://www.w3.org/2000/svg">
<path d="M8.01017 27L8.37396 27.3644L8.73837 27.7282L0.728199 35.7384L0 35.0102L8.01017 27Z" fill="#3F3B3C"/>
<path d="M7.64576 28.0926L8.00986 27.7285L8.37396 27.3644L15.9998 34.9902L15.2716 35.7184L7.64576 28.0926Z" fill="#3F3B3C"/>
<path d="M7.42013 27.983H8.44996V42.4006H7.42013V27.983Z" fill="#3F3B3C"/>
<path d="M8.01017 0L8.37396 0.364403L8.73837 0.728203L0.728199 8.73837L0 8.01017L8.01017 0Z" fill="#3F3B3C"/>
<path d="M7.64576 1.09259L8.00986 0.728503L8.37396 0.364403L15.9998 7.9902L15.2716 8.7184L7.64576 1.09259Z" fill="#3F3B3C"/>
<path d="M7.42013 0.982973H8.44996V15.4006H7.42013V0.982973Z" fill="#3F3B3C"/>
</svg>
