<svg width="128" height="112" viewBox="0 0 128 112" fill="none" xmlns="http://www.w3.org/2000/svg">
<path d="M26.8999 81.7999C25.3999 80.7999 20.8999 81.2999 15.8999 81.2999C12.3999 81.2999 12.3999 83.5999 12.3999 88.8999C12.3999 90.5999 12.3999 92.7999 13.1999 94.3999C14.2999 96.4999 17.0999 96.3999 20.5999 96.2999C23.7999 96.0999 26.9999 96.2999 27.7999 94.1999C28.3999 92.1999 28.1999 90.1999 28.2999 88.1999C28.4999 85.5999 28.7999 83.1999 26.8999 81.7999ZM49.4999 55.9999C51.0999 51.1999 46.4999 47.1999 41.7999 47.9999C34.9999 49.0999 35.3999 58.9999 42.2999 59.4999C44.8999 59.6999 48.5999 58.6999 49.4999 55.9999ZM68.1999 55.9999C69.7999 51.1999 65.1999 47.1999 60.4999 47.9999C53.6999 49.1999 54.0999 58.9999 61.0999 59.5999C63.5999 59.6999 67.2999 58.6999 68.1999 55.9999ZM49.4999 74.6999C51.0999 69.8999 46.4999 65.8999 41.7999 66.6999C34.9999 67.7999 35.3999 77.6999 42.2999 78.1999C44.8999 78.3999 48.5999 77.3999 49.4999 74.6999ZM68.1999 74.6999C69.7999 69.8999 65.1999 65.8999 60.4999 66.6999C53.6999 67.8999 54.0999 77.6999 61.0999 78.2999C63.5999 78.3999 67.2999 77.3999 68.1999 74.6999ZM49.4999 92.2999C51.0999 87.4999 46.4999 83.4999 41.7999 84.2999C34.9999 85.4999 35.3999 95.2999 42.2999 95.7999C44.8999 96.0999 48.5999 95.0999 49.4999 92.2999ZM68.1999 92.2999C69.7999 87.4999 65.1999 83.4999 60.4999 84.2999C53.6999 85.4999 54.0999 95.3999 61.0999 95.8999C63.5999 96.0999 67.2999 95.0999 68.1999 92.2999Z" fill="black"/>
<path d="M81.3999 97.7C81.5999 93.2 81.3999 83.6 81.3999 79C81.3999 61.1 80.7999 41.5 80.7999 23.7C80.7999 18.5 81.5999 10.1 77.2999 5.50005C73.2999 1.20005 67.9999 1.80005 57.2999 1.80005H19.2999C14.9999 1.80005 9.5999 2.30005 6.2999 5.30005C1.2999 9.80005 1.8999 15.5 1.4999 21.6C1.1999 27 1.5999 34.9 1.5999 40.4C1.5999 53.2 1.2999 69.4 1.2999 84.1C1.2999 92.1 -0.300102 103.3 7.8999 108.6C10.9999 110.6 19.6999 110.6 23.3999 110.6H42.9999L70.7999 110.5C80.3999 110.5 81.1999 102.8 81.4999 97.7H81.3999Z" stroke="black" stroke-width="2" stroke-linecap="round" stroke-linejoin="round"/>
<path d="M71.9998 28.7996C71.9998 19.6996 72.1998 15.8996 69.8998 13.2996C68.0998 11.0996 65.2998 10.5996 58.8998 10.5996H42.2998C31.2998 10.5996 31.2998 10.8996 19.7998 10.8996C11.1998 10.8996 9.7998 13.7996 9.7998 23.0996C9.7998 25.0996 9.7998 28.3996 10.1998 30.4996C11.4998 36.4996 16.4998 34.7996 25.5998 34.7996L42.2998 34.5996L61.6998 34.7996C67.0998 34.7996 71.8998 34.3996 71.8998 28.7996H71.9998ZM28.5998 52.9996C28.5998 48.1996 27.8998 45.9996 22.9998 45.9996C16.3998 45.9996 13.4998 45.9996 12.7998 49.9996C12.1998 52.7996 12.1998 56.9996 12.1998 60.9996L12.3998 70.3996C12.3998 74.8996 15.1998 73.7996 19.4998 73.7996C24.3998 73.7996 28.4998 73.8996 28.5998 70.9996C28.7998 67.7996 28.7998 64.2996 28.7998 61.6996L28.5998 52.9996ZM26.8998 81.7996C25.3998 80.7996 20.8998 81.2996 15.8998 81.2996C12.3998 81.2996 12.3998 83.5996 12.3998 88.8996C12.3998 90.5996 12.3998 92.7996 13.1998 94.3996C14.2998 96.4996 17.0998 96.3996 20.5998 96.2996C23.7998 96.0996 26.9998 96.2996 27.7998 94.1996C28.3998 92.1996 28.1998 90.1996 28.2998 88.1996C28.4998 85.5996 28.7998 83.1996 26.8998 81.7996ZM49.4998 55.9996C51.0998 51.1996 46.4998 47.1996 41.7998 47.9996C34.9998 49.0996 35.3998 58.9996 42.2998 59.4996C44.8998 59.6996 48.5998 58.6996 49.4998 55.9996ZM68.1998 55.9996C69.7998 51.1996 65.1998 47.1996 60.4998 47.9996C53.6998 49.1996 54.0998 58.9996 61.0998 59.5996C63.5998 59.6996 67.2998 58.6996 68.1998 55.9996ZM49.4998 74.6996C51.0998 69.8996 46.4998 65.8996 41.7998 66.6996C34.9998 67.7996 35.3998 77.6996 42.2998 78.1996C44.8998 78.3996 48.5998 77.3996 49.4998 74.6996ZM68.1998 74.6996C69.7998 69.8996 65.1998 65.8996 60.4998 66.6996C53.6998 67.8996 54.0998 77.6996 61.0998 78.2996C63.5998 78.3996 67.2998 77.3996 68.1998 74.6996ZM49.4998 92.2996C51.0998 87.4996 46.4998 83.4996 41.7998 84.2996C34.9998 85.4996 35.3998 95.2996 42.2998 95.7996C44.8998 96.0996 48.5998 95.0996 49.4998 92.2996ZM68.1998 92.2996C69.7998 87.4996 65.1998 83.4996 60.4998 84.2996C53.6998 85.4996 54.0998 95.3996 61.0998 95.8996C63.5998 96.0996 67.2998 95.0996 68.1998 92.2996Z" stroke="black" stroke-width="2" stroke-linecap="round" stroke-linejoin="round"/>
<path d="M61.6002 17.2002C61.6002 20.5002 62.1002 24.0002 61.9002 27.3002M51.4002 17.5002C51.6002 18.8002 51.6002 20.0002 51.6002 21.3002L51.8002 27.5002M35.2002 17.5002C37.9002 17.7002 40.4002 17.4002 41.8002 17.8002L41.6002 20.6002C41.7002 22.9002 41.6002 25.3002 41.5002 27.6002" stroke="black" stroke-width="2" stroke-linecap="round" stroke-linejoin="round"/>
</svg>
