<svg width="240" height="240" viewBox="0 0 240 240" fill="none" xmlns="http://www.w3.org/2000/svg">
<path d="M178.11 105.07C178.38 104.97 178.71 104.62 178.98 104.59C179.67 104.49 179.46 104.89 179.38 105.54C179.26 106.61 179.26 107.69 179.14 108.78C178.99 110.05 178.86 111.38 178.77 112.63C178.73 113.25 178.61 113.81 178.8 114.41C179.12 115.41 179.65 117.66 180.49 118.29C181.49 119.03 182.85 118.49 184.02 118.53C183.35 119.41 185.6 116.86 186.03 115.32C186.5 113.63 186.18 112.55 187.09 111.45C187.51 110.93 186.94 109.29 187.12 108.57C187.32 107.71 187.72 106.8 187.76 105.91C187.83 104.29 188.1 102.61 187.94 101.01C188.02 101.87 190.84 99.2799 191.03 99.0299C191.89 97.9399 191.98 96.3199 191.38 95.0899C191.18 94.6499 190.9 94.2299 190.65 93.8199C190.47 93.5499 189.9 93.0599 189.85 92.7799C189.72 92.2799 190.09 91.7799 190.11 91.2799C190.11 90.6799 189.87 90.3399 189.55 89.8799C188.8 88.8299 188.15 87.8599 186.98 87.2099C185.974 86.6636 184.928 86.1955 183.85 85.8099C183.07 85.5299 182.35 84.9799 181.55 84.7899C179.85 84.3899 178.26 84.5199 176.53 84.5599C175.68 84.5699 174.83 84.4899 174.01 84.4999C172.29 84.4999 170.58 85.3199 168.97 85.7799C166.53 86.4799 164.83 87.6199 163.07 89.4399C159.08 93.5799 161.53 99.4399 163.61 103.76C164.08 104.75 164.57 106.23 165.26 106.9C166.2 104.9 165.06 107.63 166.55 109.06C167.18 109.66 168.65 111.09 167.81 111.71C168.83 112.3 170.47 112.25 171.81 112.19C172.91 112.14 173.67 111.23 174.23 110.38C174.86 109.41 174.68 108.63 174.58 107.53C174.53 106.881 174.36 106.247 174.08 105.66C173.91 105.25 173.57 104.81 173.7 104.36C175.27 104.72 176.43 105.7 178.13 105.06H178.11V105.07Z" fill="white"/>
<path d="M174.9 98.9899C182.78 100.38 178.33 110.82 179.07 115.82C179.49 118.72 184.2 120.24 186.13 116.59C187.61 113.81 188.74 100.29 187.2 97.5299C185.39 94.2299 181.53 92.6499 179.5 91.8999" stroke="black" stroke-width="1.5" stroke-linecap="round" stroke-linejoin="round"/>
<path d="M183.6 88.5501C186.15 89.4301 189.1 91.4601 190.43 93.3101C191.21 94.4101 191.89 95.6401 191.78 97.0201C191.66 98.2701 190.78 100.19 188.3 101.2M174.77 98.9601C172.07 98.9601 171.99 101.96 173.39 104.5C174.9 107.21 175.39 110.57 172.88 111.67C166.28 114.57 162.24 100.42 161.46 95.4201C160.71 90.6401 165.01 86.1601 170.8 85.1201" stroke="black" stroke-width="1.5" stroke-linecap="round" stroke-linejoin="round"/>
<path d="M170.49 85.1901C174.56 84.2901 178.61 84.3901 180.33 84.6901C184.67 85.4501 190.88 87.6101 190.19 92.4901M173 103.65C175.4 105.9 177.32 105.33 179.07 104.83" stroke="black" stroke-width="1.5" stroke-linecap="round" stroke-linejoin="round"/>
<path d="M151.74 109.04C158.1 110.17 163.63 106.83 166.88 101.44C174.33 89.0999 168.22 79.2099 155.88 74.5399C140.71 68.8299 117.52 64.8699 101.44 68.3299C98.9599 68.8599 97.7099 65.2799 95.9599 66.8199C88.3899 73.5199 87.5299 88.0599 92.1299 95.8599C94.4299 99.7799 98.1099 101.99 103.01 100.69L151.71 109.04H151.74Z" fill="white" stroke="black" stroke-width="1.5" stroke-linecap="round" stroke-linejoin="round"/>
<path d="M67.6801 137.07C56.6684 138.151 45.907 141.022 35.8201 145.57C29.7301 148.32 22.4301 151.69 17.2701 155.9C13.6701 158.84 11.4201 161.38 10.6301 165.16C3.53007 163.92 1.18007 152.39 1.01007 146.57C0.740069 137.01 4.72007 126.09 8.87007 117.63C15.9401 103.23 27.4701 91.0101 39.1901 80.2801L73.4201 66.0801L99.1101 67.6101C99.1101 67.6101 113.77 85.8201 121.05 101.58C131.01 123.08 129.91 136.09 127.4 133.63L67.6901 137.09" fill="white"/>
<path d="M67.6801 137.07C56.6684 138.151 45.907 141.022 35.8201 145.57C29.7301 148.32 22.4301 151.69 17.2701 155.9C13.6701 158.84 11.4201 161.38 10.6301 165.16M10.6301 165.16L10.3301 165.21M10.6301 165.16C3.53007 163.92 1.18007 152.39 1.01007 146.57C0.740069 137.01 4.72007 126.09 8.87007 117.63C15.9401 103.23 27.4701 91.0101 39.1901 80.2801L73.4201 66.0801L99.1101 67.6101C99.1101 67.6101 113.77 85.8201 121.05 101.58C131.01 123.08 129.91 136.09 127.4 133.63L67.6901 137.09" stroke="black" stroke-width="1.5" stroke-linecap="round" stroke-linejoin="round"/>
<path d="M46.7402 51.73C46.9902 37.12 60.0102 25.8 71.5802 22.88C86.2402 19.18 100.31 20.08 110.41 33.35L110.47 33.69C109.267 33.7791 108.097 34.127 107.04 34.71C100.75 38.07 98.0802 41.88 90.3002 40.31C84.8702 39.21 81.9102 36.51 78.6302 32.98C78.1902 38.44 74.7902 43.68 70.2002 46.79C67.6602 48.51 65.2702 50.02 62.2002 50.61C59.9502 51.05 55.8602 51.11 53.5402 50.51H53.4302C50.9302 50.01 48.5602 50.91 46.9002 52.47L46.7402 51.73Z" fill="black" stroke="black" stroke-width="1.5" stroke-linecap="round" stroke-linejoin="round"/>
<path d="M116.74 38.22C116.427 36.8319 115.619 35.6057 114.466 34.7716C113.314 33.9375 111.896 33.5529 110.48 33.69C109.277 33.7794 108.107 34.1273 107.05 34.71C100.76 38.07 98.1 41.88 90.31 40.31C84.89 39.21 81.92 36.51 78.64 32.98C78.2 38.44 74.8 43.68 70.21 46.79C67.67 48.51 65.29 50.02 62.21 50.61C59.96 51.05 55.87 51.11 53.56 50.51H53.44C50.94 50.01 48.57 50.91 46.92 52.47C44.13 55.07 43.4 59.52 47.6 62.2C47.6 62.2 51.55 63.87 54.86 61.82C55.56 62.82 60.66 69.03 67.07 72.17C72.29 74.72 79.14 74.38 79.14 74.38C82.91 75.72 98.11 74.46 107.3 60.35C111.54 53.86 111.98 43.89 112.3 43.7C117.5 43.23 116.76 38.22 116.76 38.22" fill="white"/>
<path d="M116.74 38.22C116.427 36.8319 115.619 35.6057 114.466 34.7716C113.314 33.9375 111.896 33.5529 110.48 33.69C109.277 33.7794 108.107 34.1273 107.05 34.71C100.76 38.07 98.1 41.88 90.31 40.31C84.89 39.21 81.92 36.51 78.64 32.98C78.2 38.44 74.8 43.68 70.21 46.79C67.67 48.51 65.29 50.02 62.21 50.61C59.96 51.05 55.87 51.11 53.56 50.51H53.44C50.94 50.01 48.57 50.91 46.92 52.47C44.13 55.07 43.4 59.52 47.6 62.2C47.6 62.2 51.55 63.87 54.86 61.82C55.56 62.82 60.66 69.03 67.07 72.17C72.29 74.72 79.14 74.38 79.14 74.38C82.91 75.72 98.11 74.46 107.3 60.35C111.54 53.86 111.98 43.89 112.3 43.7C117.5 43.23 116.76 38.22 116.76 38.22" stroke="black" stroke-width="1.5" stroke-linecap="round" stroke-linejoin="round"/>
<path d="M77.3702 58.5801C82.7702 61.3101 90.9302 56.7501 91.1902 51.7101M80.2502 50.6001C79.2702 48.0801 83.8002 44.8401 85.7802 47.9001M74.8302 46.9301C74.0302 43.2201 79.2102 40.6101 81.4102 43.5801C81.5602 40.4901 85.7502 38.7801 88.0002 41.5501" stroke="black" stroke-width="1.5" stroke-linecap="round" stroke-linejoin="round"/>
<path d="M122.23 193.7C123.33 197.34 124.78 200.36 125.86 203.24C127.2 206.73 128.59 210.84 130.46 214.07L173.79 214.35L145.17 142.21L100.5 144.8L122.24 193.68" fill="white"/>
<path d="M122.23 193.7C123.33 197.34 124.78 200.36 125.86 203.24C127.2 206.73 128.59 210.84 130.46 214.07L173.79 214.35L145.17 142.21L100.5 144.8L122.24 193.68" stroke="black" stroke-width="1.5" stroke-linecap="round" stroke-linejoin="round"/>
<path d="M168.5 214.16H156.56C154.56 214.16 145.48 214.41 143.16 214.16L131.48 214.04C126.98 214.36 122.05 216.14 118.94 219.39C115.56 222.93 114.08 227.79 116.51 232.91C117.65 235.3 121.01 238.39 123.33 238.51H123.81C144.63 238.88 178.73 238.63 178.73 238.63L168.5 214.16Z" fill="white" stroke="black" stroke-width="1.5" stroke-linecap="round" stroke-linejoin="round"/>
<path d="M128.85 146.4C127.02 152.42 121.52 167.8 119.91 172.14C118.51 175.92 99.0901 226.93 94.8901 238.61C96.4401 238.7 102.92 238.79 106.03 238.61C109.13 230.39 123.05 190.48 125.5 184.03C127.55 178.65 133.6 162.82 136.16 155.33C135.61 170.12 133.82 192.75 133.24 203.54C132.65 214.13 131.4 225.27 131.4 238.61H142.18C142.69 230.94 143.16 213.83 143.28 206.11C143.48 193.08 145.11 168.67 145.28 154.97C149.61 165.62 154.78 180.37 160.08 193.87C162.65 200.42 166.84 209.77 169.33 216.37C171.23 221.37 175.8 232.59 178.71 238.61C182.92 238.61 185.03 238.7 188.76 238.44C184.55 226.93 180.14 215.8 177.44 208.48C172.43 195.666 167.196 182.941 161.74 170.31C160.71 168.02 154.44 151.5 152.24 146.01L128.85 146.38V146.4Z" fill="black" stroke="black" stroke-width="1.5" stroke-linecap="round" stroke-linejoin="round"/>
<path d="M62.38 174.38C47.69 175.84 32.83 175.15 18.12 173.75C14.92 173.45 11.5 173.15 8.67004 174.68C5.84004 176.2 4.19004 180.34 6.35004 182.73C7.19004 183.66 8.42004 184.15 9.60004 184.54C13.3037 185.775 17.1678 186.462 21.07 186.58L2.29004 238.2C5.81004 238.32 9.34004 238.44 12.86 238.54C19.41 221.91 25.96 205.3 32.53 188.68C32.77 188.08 33.03 187.45 33.55 187.06C34.12 186.64 34.89 186.61 35.61 186.6L55.77 186.29C56.47 186.29 57.22 186.29 57.82 186.64C58.64 187.12 58.98 188.12 59.26 189.04L74.14 238.44C76.57 238.44 79.01 238.3 81.44 238.24C82.82 238.2 86.76 238.94 87.01 236.96C87.11 236.15 86.71 235.39 86.35 234.66C84.53 231.02 83.38 227.12 82.22 223.23L72.1 189.3C71.99 188.9 71.87 188.48 71.99 188.09C72.25 187.19 73.44 187.06 74.36 187.02C77.34 186.87 80.62 185.61 81.72 182.84C83.07 179.44 80.3 175.55 76.88 174.28C73.47 173 69.67 173.58 66.03 174.03C64.83 174.17 63.63 174.31 62.43 174.43L62.38 174.39V174.38Z" fill="white" stroke="black" stroke-width="1.5" stroke-linecap="round" stroke-linejoin="round"/>
<path d="M85.2102 215.6C96.1602 216.34 99.4602 223.28 97.8102 230.04C96.1902 236.75 91.1902 238.07 85.2102 238.44C77.2802 238.92 69.5102 238.61 60.0102 238.61C53.3102 238.61 44.4802 238.98 40.1002 235.51C33.4602 230.24 36.8102 222.9 39.9202 217.06L40.1002 216.69C53.8002 217.89 69.3302 217.15 82.8302 215.96C84.3402 215.83 85.2302 215.66 85.9302 215.37L85.2102 215.59V215.61V215.6Z" fill="white" stroke="black" stroke-width="1.5" stroke-linecap="round" stroke-linejoin="round"/>
<path d="M217.58 77.9001C216.61 77.4301 210.13 74.3 208.62 73.75M206.61 87.84C207.81 87.84 213.61 87.83 214.79 87.81M220 63.8C220.3 64.3 223.88 70.2001 224.15 70.7201" stroke="black" stroke-width="1.5" stroke-linecap="round" stroke-linejoin="round"/>
<path d="M67.6801 137.07L104.19 147.12C125.92 152.23 122.64 164.11 120.63 170.13C118.52 176.48 114.06 184.07 110 189.33C105.72 194.86 101.88 200.19 96.9001 205.19C94.7001 207.39 91.7001 210.44 89.4001 212.5C87.6101 214.1 87.0001 214.92 85.9101 215.39C85.2201 215.69 84.3301 215.84 82.8201 215.98C69.3201 217.16 53.7801 217.9 40.0801 216.71C42.4601 212.15 50.1101 201.05 52.5001 197.53C55.6101 192.97 65.8301 178.18 69.1301 174.34C61.9301 174.57 58.4301 174.59 54.8801 174.71C49.1401 174.88 40.7401 175.41 34.9701 175.07C24.4301 174.44 15.6201 173.97 10.3101 165.21L10.6101 165.16C11.4101 161.38 13.6501 158.83 17.2601 155.9C22.4201 151.69 29.7201 148.32 35.8001 145.56C45.8929 141.031 56.6518 138.164 67.6601 137.07H67.6801Z" fill="white" stroke="black" stroke-width="1.5" stroke-linecap="round" stroke-linejoin="round"/>
<path d="M81.3101 221.58C82.0401 219.14 83.9301 217.1 85.9401 215.73" stroke="black" stroke-width="1.5" stroke-linecap="round" stroke-linejoin="round"/>
<path d="M81.9301 80.84C82.1901 77.51 79.6101 74.21 76.7301 72.89C73.3501 71.33 69.1701 72.59 65.9901 70.37C59.6601 65.98 60.1901 56.06 53.8201 59.45C53.1301 59.81 52.6801 60.35 52.4201 61.01L51.8701 61.11C50.76 61.0347 49.6563 61.3295 48.7316 61.9483C47.807 62.5671 47.1136 63.4751 46.7601 64.53C46.6801 64.78 46.6401 65.06 46.6201 65.33L46.5201 65.25C43.6001 65.45 41.9601 69.06 43.0501 72.52L42.8701 72.8C42.1401 72.55 39.2201 73.05 38.7401 75.6C38.1201 78.83 40.1601 81.7 42.1501 84C48.2401 91.07 56.8901 88.87 62.2401 90.7C62.2401 90.7 66.3901 85.63 71.0001 83.86C75.6201 82.08 81.9601 80.84 81.9601 80.84" fill="white"/>
<path d="M81.9301 80.84C82.1901 77.51 79.6101 74.21 76.7301 72.89C73.3501 71.33 69.1701 72.59 65.9901 70.37C59.6601 65.98 60.1901 56.06 53.8201 59.45C53.1301 59.81 52.6801 60.35 52.4201 61.01L51.8701 61.11C50.76 61.0347 49.6563 61.3295 48.7316 61.9483C47.807 62.5671 47.1136 63.4751 46.7601 64.53C46.6801 64.78 46.6401 65.06 46.6201 65.33L46.5201 65.25C43.6001 65.45 41.9601 69.06 43.0501 72.52L42.8701 72.8C42.1401 72.55 39.2201 73.05 38.7401 75.6C38.1201 78.83 40.1601 81.7 42.1501 84C48.2401 91.07 56.8901 88.87 62.2401 90.7C62.2401 90.7 66.3901 85.63 71.0001 83.86C75.6201 82.08 81.9601 80.84 81.9601 80.84" stroke="black" stroke-width="1.5" stroke-linecap="round" stroke-linejoin="round"/>
<path d="M52.38 61.01C51.21 63.87 53.56 68.87 54.92 70.68C56.34 72.55 59.14 75.47 62.79 76.68M46.6 65.32C46.37 68.39 49.09 72.98 50.87 74.99C52.71 77.05 54.77 78.4 58.17 79.62M43.02 72.52C43.21 73.11 43.47 73.7 43.81 74.25C45.63 77.17 49.66 82.05 53.54 83.02" stroke="black" stroke-width="1.5" stroke-linecap="round" stroke-linejoin="round"/>
<path d="M67.8701 135.52C67.8701 138.1 71.3401 142.18 73.7201 143.49C77.1901 145.43 82.2501 146.39 87.2301 146.74C93.6301 147.16 103.61 146.87 108.96 146.74C127.04 146.31 133.69 145.44 147.31 145.44C160.93 145.44 193.29 146.04 201.37 146.04C207.73 146.04 218.53 144.37 224 139.11C226.3 136.9 227.3 136.18 227.3 132.73C222.78 132.73 104.27 132.03 68.1001 132.73" fill="white"/>
<path d="M67.8701 135.52C67.8701 138.1 71.3401 142.18 73.7201 143.49C77.1901 145.43 82.2501 146.39 87.2301 146.74C93.6301 147.16 103.61 146.87 108.96 146.74C127.04 146.31 133.69 145.44 147.31 145.44C160.93 145.44 193.29 146.04 201.37 146.04C207.73 146.04 218.53 144.37 224 139.11C226.3 136.9 227.3 136.18 227.3 132.73C222.78 132.73 104.27 132.03 68.1001 132.73" stroke="black" stroke-width="1.5" stroke-linecap="round" stroke-linejoin="round"/>
<path d="M50.5 121C53.25 125.75 59.55 131.3 62.93 133.53C67.0175 136.175 71.5201 138.115 76.25 139.27C87.03 141.82 97.95 139.71 104.19 133.42C108.23 129.36 107.38 120.18 106.7 115.01C105.72 107.47 103.21 100.21 100.51 93.1399C97.36 84.8799 92.04 80.2899 83 80.8199C78.8167 80.9975 74.7133 82.025 70.94 83.8399C64.08 87.1499 59.55 92.2999 59.74 100.07C59.91 106.65 62.31 113.63 65.83 119.17" fill="white"/>
<path d="M50.5 121C53.25 125.75 59.55 131.3 62.93 133.53C67.0175 136.175 71.5201 138.115 76.25 139.27C87.03 141.82 97.95 139.71 104.19 133.42C108.23 129.36 107.38 120.18 106.7 115.01C105.72 107.47 103.21 100.21 100.51 93.1399C97.36 84.8799 92.04 80.2899 83 80.8199C78.8167 80.9975 74.7133 82.025 70.94 83.8399C64.08 87.1499 59.55 92.2999 59.74 100.07C59.91 106.65 62.31 113.63 65.83 119.17" stroke="black" stroke-width="1.5" stroke-linecap="round" stroke-linejoin="round"/>
<path d="M209.65 132.57C217.17 132.57 218.56 127.95 226.71 109.82C237.36 86.16 243.78 75.52 234.61 72.02C227.81 85.6 215.31 111.64 211.67 118.62C208.47 124.76 204.43 123.48 200.75 123.48C200.37 122.317 200.096 121.122 199.93 119.91C197.64 119.76 195.34 119.81 192.86 119.81C192.51 121.46 192.41 122.11 192.14 123.5C190.12 123.5 188.92 123.45 187.36 123.3C187.28 122.2 186.91 121.02 186.72 119.92C183.05 119.92 182.04 119.83 179.29 119.83C179.09 120.93 178.83 121.94 178.55 123.22C177.01 123.38 174.59 123.47 173.05 123.31C172.5 121.65 172.41 120.83 171.87 119.73C169.3 119.73 167.67 119.77 165.51 119.92C165.21 121.03 164.86 122.35 164.98 123.5C164.28 123.64 144.54 123.5 144.54 123.5C144.54 123.5 145.36 132.57 153.82 132.57H209.65Z" fill="white" stroke="black" stroke-width="1.5" stroke-linecap="round" stroke-linejoin="round"/>
</svg>
