<svg xmlns="http://www.w3.org/2000/svg" width="648" height="328" fill="none"><path fill="#F3EDE6" d="M452.8 83.2a29.6 29.6 0 0 0-3.1 8.2c-.5 2.4-.3 5.7 1 7.8a9 9 0 0 0 7 4.7c.7 0 1.3 0 1.9-.2 1.8-.4 3.6-1.3 5.4-1.9 1.7-.4 3.3-.4 5-.5 3.1-.2 5.4 0 8 2a11.7 11.7 0 0 1 5.4 9.4c0 5.5-5 9.5-10.2 10-1.7.3-4.1-.3-5.7-1-1.6-.9-3-1.9-4.4-3-.2-.3-.8-1.3-1.1-1.2-.6 0-.7 1.1-.8 1.5-1 3.3-2.6 6.3-5.3 8.6-1 .7-2 1-3.1 1.4-2.3 1-4.8 1.7-7 3-1.3.9-3.4 2.4-4.2 4-.4 1-.7 2.3-.8 3.5 0 .8.5 4-.1 4.3a16 16 0 0 0-10-6.1l-3.6-.6c-2-.3-4.2 0-6.2 0H418c-.9 0-1.8.2-2.7 0-1.3 0-2.6-.2-4-.5a13 13 0 0 1-7.2-4.7c-.8-1-1.8-1.7-2.6-2.7l-2-3c-.5-.7-1.2-1.4-1.6-2.2-1.9-3.6-2.1-7.6-2.6-11.5-.2-1.6-.5-3-.3-4.5.5-4.2.7-8 2.8-11.7.6-1.2 1.2-2.5 2-3.6.6-1 1.2-2.5 2.3-3.3l-2-1.1c-2-1.6-2.7-5.3-2.3-7.7.3-2.1 1.5-3.7 3.6-4.1 2-.5 4-.4 5.8.3a7 7 0 0 1 3 2c0-1.6.8-3 1.3-4.5.6-1.6 1.4-3.2 2.4-4.6l1.9-2.8c.3-.6.5-2.2 1.5-2.2.3 0 1.3.8 1.7 1 1.5.6 3 1.5 4.6 2.2l2.5 1a179.2 179.2 0 0 0 24.2 9.2c1.6.5 3.2.8 4.9.9-.4 1.4-1.7 2.9-2.4 4.2ZM351.9 81.4c.8-.2 1.6-1.1 2.5-1.4 3-1.1 5-.4 7.2 1.4a18.4 18.4 0 0 1 5.1 9.8c.5 2.8 1.5 5.6 1.3 8.5-.1 2-.6 4-1.5 5.8-1.7 3.4-5.4 5.4-8.5 2.4a6.1 6.1 0 0 1-5.9 5c-1.5 0-2.7-.8-3.8-1.9a12.6 12.6 0 0 1-3-5.5c-.5 1.5-.3 3.4-.9 4.8-.2.7-.6 1.2-1 1.7-1.1 1-3.7 1.7-5.2 1.3-1.7-.5-3-2.3-4-3.7a24.3 24.3 0 0 1-3.1-5.7c.7 1.4 0 5-.8 6.5-1.3 2-3 2-5.2 1.8-2-.3-3.2-2-4.1-3.6-1-1.7-1.5-3.6-2.3-5.3-.7-1.4-.7-2.6-1-4.2l-.5-3.3c-.5-5-2.3-11.5 1.9-15.5 1.2-1.3 2.5-1.4 4.2-1.5 2.4 0 3.2 1.5 5 3 .7-1.4.7-3.3 2.2-4 1.2-.6 2.7-.6 3.9-.5 2 0 4.8 1.7 5.2 3.9.4-1.4.1-2.7 1.1-3.9 1-1.2 2-1.1 3.5-1.2 1.4 0 2.9.4 4 1.2 1 .5 1.7 1.2 2.4 2 .3.3 1.2 1.4 1 2"/><path fill="#F3EDE6" d="M368.2 112.5c.5-2.7.9-5.3 2.9-7.3s4.4-3.1 7-2c2 1 3.1 3 4 5a31.2 31.2 0 0 1 1.6 6.4c.2 3.8.2 7.6 0 11.4-.1 1.1-.3 2.3-.7 3.4-1.3 5.2-2.7 10.3-7 13.8-2.4 1.9-4.8 2.7-7.5 3.8-1.4.6-3 .5-4.4.7l-5.4 1c-1.7.4-3.4.7-5.2.8l-3.5.1c-3.5.3-6.7-.3-10.1-.5h-2.5c-3 .4-5.8-.3-8.7-.4-3.2 0-6.4-.7-9.4-1.7-5-1.7-7.8-9.5-7.6-14.3 0-.9-.2-3.6.6-4 .4-.3 1.6 0 2.1 0 .9-.1 1.8 0 2.7-.2 2.8-.3 5.7-.7 8.6-.8h7.4c3-.3 5.9 0 8.8-.2 2.3-.2 4.6-.5 7-.6l5.8-.5c2.8-.1 5.6-1 8.1-2.3a9 9 0 0 0 3-3c1.6-2.7 1.8-5.6 2.4-8.6Z"/><path fill="#F3EDE6" d="M374 95.6c1 .5 2.1.8 3.2 1 1.7.3 3.4.8 5.1 1.4 6.2 2.2 7.6 9.9 7.8 15.6a23 23 0 0 1-.7 5.3c-.3 1.4-.6 3.2-1.6 4.3-.8.9-2.5 2.3-3.7 2.2-.6-1.6-.5-3.7-.5-5.4 0-1.3.2-2.3.3-3.5a21 21 0 0 0-1.5-7.5c-.7-2-1.7-4.3-3.6-5.5-1-.5-2-.8-3-.9-3.9-.1-5.7 3.5-7 6.6-1.6 3.8-1.1 7.9-2.5 11.7-1.4 3.8-6.4 5.2-10 5.6-3.1.4-6.3.3-9.6.4h-4c-1.7 0-3.4.3-5 .4H332c-1.5 0-3 .5-4.6.5-2 0-4.1 0-6.1.2-1.9.2-3.7 0-5.6.2-5.4.5-11 .4-16.4 1.1-1.3.2-2.8.2-4.2.3h-4.4c-6.3.2-12.4.9-18.6 1.4-1.3 0-2.8 0-4.1.2-3.2.4-6.4.1-9.5.3-1.3.1-2.6.4-4 .3-1.8 0-3.5-.8-5.4-.3a27.3 27.3 0 0 1-15-2c-1.7-.8-3.2-2-4.4-3.3l-1.5-2c-.5-1-.6-2-1-2.8-1.1-1.6-1.8-3.5-2-5.5-.2-2.2-.9-4.3-1.3-6.5-.2-1-.5-1.9-.6-2.9-.8-4.4-1.4-8.8-2-13.2a21.3 21.3 0 0 1 4.6-14.5c.6-.6 1.2-1.1 2-1.5 1.5-1 2.8-2 4.7-2.4a19.4 19.4 0 0 1 10.8 1.2l6 1.1c1 .3 2 .2 3 .4l7.2 1.6c1.2.3 2.4.2 3.6.4l2.8.7c0-.9-.7-2.4-1.2-3.2l-1.4-2c-.4-.7-.7-1.6-1.3-2.2-.5-.5-1.5-1-1.4-1.8l3 .6c4.3.9 8.4 2.2 12.7 3.2 3.8.9 7.5 1.2 11.3 2l4 1 11.5 2.2c3.3.6 6.6 1.4 9.8 2.4 1.3.4 2.6 1 4 1.3-.8.4-.4 6.3-.4 7.3 0 3.1.6 6 1.2 9 .8 3.8 1.6 7.8 4.5 10.6 1.7 1.7 4.1 2.4 6.3 1 3.1-1.9 2.6-5.1 2.5-8.3.4.8.8 1.6 1 2.4l2.3 4c.5 1 1.4 2 2.5 2.5 1 .5 2.1 1.1 3.3.9a6.3 6.3 0 0 0 4-3.3 9 9 0 0 0 1-4.7c0 1.5 1.9 3.6 2.8 4.7a5.4 5.4 0 0 0 5.6 2c2.2-.4 3.5-2.5 4.6-4.3 1 .8 1.2 1.3 2.5 1.4h2.2a6.4 6.4 0 0 0 4-3.9c.7-2 .8-4.4.8-6.5l-.3-5.4c2.1 1 4.3 1.8 6.5 2.4ZM474.3 138.6c-.4 1 0 2.3-.3 3.4-.9 2.8-1.9 5.6-3 8.3-.3.8-.9 1.5-1.2 2.2-.7 1.3-1.5 2.6-2.4 3.7-.6.8-1.4 1.6-2.3 2.2-1.4 1.2-3.6.3-5-.5-1.8-1-3.6-1.8-5.5-2.6l-6.1-3-3.2-1.5-1.7-.5c-.3-.2-.5-.7-.9-.8-.5 0-.2 0-.6.3-.6.6-1.3 2.3-1.7 3l-2.6 4-3.1 4.5c-.5.5-1.4 1.8-2.4 1.8-1.2-.2-2-3.4-2.3-4.4-.7-2-1.2-4.1-2-6.1-1-2.3-1.3-4.5-1.7-6.8l-1.2-5.5-.3-2c-.2-1-.4-1.2.6-1.5 1.6-.3 3.7.4 5.2.8 2.2.4 4.9 1.5 6.6 3 1.2 1 2.2 2.6 3.4 3.7.3-3.3-.3-7 1.8-9.8 1.4-1.8 3.4-2.7 5.5-3.4 2-.6 3.7-1 5.6-1.9a26 26 0 0 0 4.4-2.8l5.1 5 2.6 1.7c1.4.6 3 1 4.5 1 .2 1 1.3 1.7 2 2.4 0 .2 2 2.4 2.2 2.1Z"/><path fill="#CDC6C0" d="m481.3 138.9 6.2.2h5.4l4.4.3h7.3c2.8 0 5.7-.7 8.5-.3l4 .1 4.2-.1c3.2 0 6.2.5 9.4.5 1.5 0 3-.2 4.6 0 2 .2 4.2.3 6.3.7 2.7.5 5.4 1 8.1 1.8 2.3.6 4.5 1.6 6.8 2.2a47.9 47.9 0 0 1 8.8 3c2.4 1.2 4.5 2.9 6.7 4.5a30.4 30.4 0 0 1 9.1 10.3c1 1.7 2 3.4 2.5 5.3l2 6.7 1.1 4.3c.3 1.2.3 2.4.5 3.7.5 2.6 1 5.2 1.2 8 .2 4.8.5 9.4.5 14.2a95 95 0 0 1-1.7 17.5l-.9 3.9-1.3 6c-.7 3.4-2 6.8-3.7 9.8-.4-1.3-2.3-2-3.5-2.4l-6-2c-1.5-.6-3.5-.6-5.2-.8-4.4-.6-8.7-.7-13.1-.5h-6.8c-2.6 0-5.3.8-7.9 1.3a74 74 0 0 0-7.7 1.9c.6-.9.5-2.5.6-3.5v-2.3c0-3.2-.5-6.6-.8-9.8-.2-1.6-.4-3.3-.4-4.9 0-3.9.4-7.7 0-11.6l-.1-3.2c0-1.7-.3-3.4-.5-5.1-.3-2.9.3-6.8-1-9.3-.2-.3-3-.4-3.4-.4l-5.3-.3-8 .5c-2.5.2-5-.1-7.7-.3-4.4-.2-8.9-.3-13.3 0-1.8 0-3.2-.5-5-.6l-5 .1c-1.7 0-3.4-.4-5-.2l.5 7.3c.4 2.8 1 6 .6 9-1.1-.3-2.5-.2-3.7-.3l-3.5-.1c-1.8 0-3.8-1-5.5-.7-.4.1-1.4.4-1.6.8-.1.6.3 1 .4 1.6v1.6c0 3.4 1 7 .5 10.5l-1 8.9c-.4 3.2-1 6.5-1.3 9.8l-.5 4.4-.2 3.1c0 2.4.4 4.8 0 7.2-.2 2 .6 4 .7 6.1.2 2.5.7 5 1 7.5.3 2.7 1.1 5.3 1.5 8 .2 1 .7 1.9.8 2.8v1.3c-1.3 0-2.5.5-3.7.6-1.8.1-3.7-.2-5.5-.1h-7l-4.6.2h-4.4c-1.7-.3-3.5-.4-5.2-.4-1.6.1-3.4 0-5-.2-3.9-.2-7.6.1-11.5.2-2.5 0-5 .3-7.6 0-1-.2-.8-.6-.8-1.7 0-2.4-.9-4.8-.8-7.2l.4-6.6c0-5 .3-10.2.4-15.2 0-3 .5-5.9.3-8.8l-.2-7c-1.4 0-2.4 1.6-3.5 2.3l-5.1 3.5-4.2 3c-2.3 1.6-5 2.6-7.3 4.2a46.9 46.9 0 0 1-7.2 4l-3.9 2c-1.9.9-3.9 1.6-5.8 2.3-3.3 1.2-6.5 1.5-9.8 2.2-1.3.2-2.5.3-3.7.2-2.3-.2-4.6-.1-6.8-.4l-4.6-.4c-3.5-.6-6.6-2.1-9.6-3.9-1.4-.8-2.8-1.8-4.1-2.8a29.3 29.3 0 0 1-10.8-12.5l-1.1-2.9c-.4-.7-.8-1.2-1-2-.5-1.4-.4-2.7-.7-4.2l-.8-5.4c-.7-4.5-.9-9-1.1-13.5V203c0-1.5 0-3-.4-4.5-.4-1.3-.3-2.6-.5-4-.1-1.3 0-2.8-.2-4.3-.2-1.3 0-2.5 0-3.9V161c0-4.4 2-9.3 1-13.7l4.1.4c1.6.4 3.2 1 4.8 1.2l3 .2 6.5.2c2 0 4 .5 6 .4 1 0 1.8-.3 2.8-.3 6.3-.1 12.7.2 18.9-1.4l4.5-1.1c.5-.2 1.6-.7 2.2-.6.2 3 .6 6 .7 9v2.8c0 2.5 0 5 .2 7.5.3 3.3.4 6.7.5 10 0 1.4-.2 2.7-.1 4 .1 1.4.5 2.9.5 4.3 0 1.3-.8 3.8-.1 5 .8-.8 1.5-2 2.3-2.8 1.2-1.2 2.6-2.1 3.8-3.4l3.9-4.3c1-1.1 1.7-2.5 2.8-3.5 1-1 2.2-1.8 3.2-2.7l2.7-2.7 2.1-2.3 5.8-5.8c2.4-2.3 5-4.2 7.9-5.8 2.7-1.5 5.2-3.3 8.1-4.5 2.5-1 5.2-1.3 7.7-2.1l2.1-.6c1-.2.8-.4 1.3.2.2.3.2 1 .4 1.5.4.8.8 1.4 1 2.2.8 2 .6 4.3 1.3 6.2.6 1.6 1.5 3 2.5 4.3.6.9.8.8 1.5.1 1.3-1.3 2.3-2.8 3.2-4.4 1-1.9 2.2-3.5 3.3-5.2.8-1.4 1.5-3.2 3.2-3.2 1.4 0 3.3 1.3 4.6 1.8l2.7 1.1 4.9 2.4c2 1 4.1 2.1 6.3 3 .9.3 2.3 1.2 3.3.8.7-.2 1.8-1.6 2.2-2.2l1.6-2.3c1.2-1.5 2.2-3.3 3-5 .7-2 .9-3.7 1.5-5.6.2-.8.6-1.6 1-2.3.2-.7.3-2 .6-2.4 1.2-1.4 5-.5 6.5-.5Z"/><path fill="#F3EDE6" d="M501.8 245.3c-.7 1.5-.6 2.5 0 4 .7 1.7 1.6 2.4 3 3.6 2.7 2.3 6 3.7 9.6 4 2 0 3.8.3 5.8.3l2.4-.1c.8-.1 1.6-.7 2.4-.6-1 2.5-2.1 5-3 7.6-1.5 0-2.7.3-4.1.2-1.8-.2-3.6-.1-5.4-.1-2.5 0-5 0-7.6-.2l-5.2.2h-7.1c-2.3 0-4.6-.7-6.9-.4-1.5.2-3.1.3-4.7.1-1 0-1.8.2-2.7.1-1.3-.1-1.6-.2-2-1.5-.5-2-1.1-3.8-1.4-6l-.3-4.8c0-1.9-.4-3.4-.5-5.2a54.9 54.9 0 0 1 .3-12.1l.3-3.3c.1-1 .6-2 .6-3.2l.2-2.4c.4-2 .8-4 1-6.1.5-2.8.8-5.6.8-8.5 0-2.7.5-5.5.3-8.3l-.3-3.1c-.3-1.9-1-3.6-1-5.5 0-1.8-.7-3.7-1.5-5.5 2.6.3 5.2.5 7.8 0 1.3-.2 2.5 0 3.9 0h4.2c3.2 0 6.4 0 9.7.3 2.3.2 4.8-.1 7.1.3 2 .3 4.2 0 6.2-.2 1.6-.2 3.4-.4 5-.2.7 0 1.4.4 2 .4 2 .3 3.5-.6 5.3-.3l2 .3c.3 0 0-.6.5-.2.7.6.6 1.8.7 2.7 1 7.5 1.6 15.1 1.8 22.7 0 4.4.4 8.8.4 13.2 0 1.4-.2 2.7 0 4 0 1.3 0 2.4.2 3.7.2.8.5 2.6 0 3.4-.3.3-2 1-2.4 1.2-2.3.7-4.6.6-7 .7-1.7.2-3.3.8-5 .9-1.3 0-2.5 0-3.7.2-3.5.4-10-.3-11.7 3.7Z"/><path fill="#F3EDE6" d="M520.7 266.7c-.7 2-1 4-1.9 5.9-.7 1.6-1.2 3.1-1 5-1 0-1.8-.3-2.7-.2h-3.7a77 77 0 0 1-7.8-.3c-2.2-.3-4.4-.2-6.6-.3-1-.1-2 0-3 .2-2.6.6-5.3.4-8 .3-1.7-.1-3.3-.3-5-.3-2.2.1-4.3.4-6.5.4-2 0-4.3-.6-6.2-.1-.7.1-1.5.4-2.2.3-.9 0-.8-.3-1-1-.3-1.9-.5-3.8-1.2-5.7-.8-2-1.3-4.2-1.5-6.4l-.8-7c-.4-2.8-1.2-6-.7-8.9.5-3 .3-6.2.5-9.2l.3-3.7c0-1-.2-2.2.2-3.3.2-.7.6-1.2.8-2 .6-2.4.7-5 1-7.5.4-3.4.3-7 .2-10.5 0-1.3-.3-2.6-.4-4 0-.6-.1-4-.9-4.3 2.1.7 5.2 0 7.5 0l4 .3c1 0 2-.3 3-.4.3.8.3 2.2.3 3 0 1.3-.3 2.7-.4 4l-1.1 12.3-.5 3.6c-.3 2-1 4-1.1 6-.2 2.4-.2 4.7-.1 7.1.2 2.8 0 5.6 0 8.5 0 3.1.6 6 1 9.2.1 2 .8 3.8 1.4 5.8 1-.1 2.2.2 3.3.3 1.1.2 2.4.2 3.6.3 4.2.2 8.3 0 12.5-.1h9.2c1.3 0 2.5.5 3.8.5 1.7 0 3.4-.1 5-.4 2.6-.3 5 .3 7.6.2l-.9 2.4Z"/><path fill="#F3EDE6" d="m522 263.8-2.3 6c-1 2.5-2.4 5-2.2 7.7.2 2.7 2.7 3 4.9 3 1.2 0 2.4-.2 3.5-.5.8-.3.8-.5 1.4 0 2.4 2 4.4 2.5 7.6 2.4a7 7 0 0 0 3-.7c1.4-.6 1.2-.6 2.4 0 1.5.9 4.3 1.4 6 1 1-.3 2-.8 3-.5l1.4.7c2.6 1.7 5.9 1.2 8.6.1l3.6-1.5 2.3-1.4a22 22 0 0 0 6.1-5.7l3-3.7c2-2.2 3-5.6 3.8-8.5a71.3 71.3 0 0 0 2.6-20c0-.5 0-1-.2-1.5-.3-.4-1.3-.6-1.7-1-1-.6-2-1-3.2-1.5-2.3-.9-4.8-1.4-7.2-1.7-3.3-.4-6.6-.6-10-1.1-3-.5-6.3-.1-9.5.2-4.6.5-9.1 1.5-13.7 2.2l-4 1c-1.5.6-3.1 1-4.7 1.4-1.8.4-3.6.6-5.5.6-1.6 0-3.3.4-5 .4-1.1 0-2.2.3-3.4.4-1.2 0-2.3 0-3.4.2-1.2.2-2.2.6-3.3.9-2.2.6-3.7 1.5-4.4 3.9a3.9 3.9 0 0 0 .6 3.1c1.8 2.8 4.5 5.3 7.8 6.3 1.8.5 3.7.9 5.6 1 .9 0 1.7.2 2.6.3.8 0 1.7.3 2.5.2 1.2 0 3.5-.4 4.7-1-.5.3-1.2 2.7-1.5 3.2l-1.8 4.1Z"/><path fill="#F3EDE6" d="m589.5 268.7-.4-4.7c0 .5-4.1 0-4.4 0l-3.3-.3c-1-.2-2-.2-2.9-.1-.7 0-.5 0-1 .4a6 6 0 0 0-.6 1.1c-1.1 2-2 4.3-3 6.3-.6 1-1.5 1.8-2.1 2.8-.8 1.2-1.8 1.9-3 2.8.6.8 3.6.4 4.5.4l4.6.2h6.3c1.7 0 5.5 1.2 7 0l-.4-2.7c-.1-1-.6-2-.9-3l-.4-3.2Z"/><path fill="#F3EDE6" d="M607 195c.4 1.4.6 3 .8 4.6.3 2 0 3.7 0 5.7-.1 1.4.3 2.8.2 4.2l-.2 4.9c0 2.5-.2 5-.5 7.5v4.3c0 1.5-.6 3.1-.9 4.7-1 5.1-1.4 10.4-2 15.6l-.2 3.2c-.2 3.2.6 6.4.6 9.7 0 1 .2 2 .1 3 0 .4.3 2.1 0 2.4-.4.4-2.1 0-2.6 0-1.6 0-3.1.4-4.6.2-1.3-.2-2.5-.7-4-.8-1.4-.1-2.8.2-4.2.2-1.3 0-2.4-.3-3.7-.3a14 14 0 0 1-2.6-.4c-1.4-.3-2.5.2-3.9.1l-1.6-.2a45.6 45.6 0 0 0 3.2-19c0-1-.4-2.2-.2-3 .3-1 1.2-2 1.7-2.9.7-1.2 1-2.5 1.6-3.8l1-3.2c.7-2.6.8-5.3 1.3-7.9.5-2.7 1.5-5.3 1.8-8l.3-9.5c.3-3.3.4-6.6.3-10-.1-2.5-.3-5-.1-7.5 0-.3 8.2.5 9 .5l3.6-.2c.9 0 1.7.2 2.5.3.5 0 1 0 1.4.2.7.2.4 0 .7.6.5 1.3.9 3.2 1.3 4.7Z"/><path fill="#CDC6C0" d="M488.2 77.7c1.3 0 2.5.7 3.8.8 2.8.2 4.7 1.4 6.8 3.4 2.2 2 3.8 4.5 4.7 7.3 1.4 5.2.1 10.2-1.1 15.3-1.2 4.6-4.4 8.8-6.9 12.8-.6 1-1 2.1-1.7 3.1-.6 1-1.2 1-2 1.7-1.6 1.2-2.3 3.3-3.8 4.7l-2.5 2.3a23 23 0 0 1-8.5 4.1c-1.2.3-2.6 1-3.8 1-1.7-.2-3.3 0-5-.6-1.6-.5-3.2-1.5-4.7-2.4-2.4-1.4-3.6-3.3-5.1-5.4.7-1.4 1.1-2.8 1.8-4.3.5-1.2 1.3-2.4 1.7-3.7 3.3 3 5.9 4.7 10.4 5.2 5.3.5 9.8-3.6 10.9-8.6.4-1.9.8-3.5.1-5.5a12.6 12.6 0 0 0-10-8.3c-1.5-.2-3-.2-4.5 0-3 .6-5.9 1.5-8.8 2.3-6.7 1.7-10.3-4-9.9-10.1.2-2.7.9-5.4 2-7.8 1-2.1 2.6-3.9 3.7-6-1.6-1.2-4-1.3-5.9-1.7-2-.4-4-.8-6.2-1.4-2.9-.7-5.5-2-8.2-3-6.1-2.6-12.4-5-18-8.5-1.7-1.1-3.3-2.1-4.7-3.6-2.4-2.6-4.7-5-3.4-8.7.8-2 2-3.9 3.3-5.5 1.2-1.4 3.1-1.6 4.7-2 5.1-1.3 10.5-.3 15.5.8l2.7.4c1.8.4 3.5 1.1 5.3 1.4 1.6.2 3 .7 4.5 1.2 4.5 1.6 9.2 2.8 13.7 4.4l3 1.1c3 1.3 6 2 9 3.2a71.5 71.5 0 0 1 11 6.3c1.7 1 3.1 2 3.9 3.8.5 1.4 1.2 2.5 1.8 3.8.5.9.7 1.8.8 2.7.2.8.2 1.6 0 2.4 0 .5-.3 1.8-.4 1.5"/><path fill="#000" d="M413 120.6c-2.2 2.4-6 2-8.4 0-2.7-2.3-3.4-5.5-3.6-8.8-.1-2 0-4 1-5.7 2.9-4.7 9.2-2 11.4 1.8 2.1 3.6 2.8 9.4-.3 12.7Z"/><path stroke="#000" stroke-linecap="round" stroke-linejoin="round" stroke-width="2" d="M474.3 139.3c9.2-1.4 14.8.3 23.3 0 11.3-.3 24.1-1 35.5.2 23.9 2.6 46.7 8.3 52.9 34.7 5 21.5 3.3 49.1-4.5 67-6.3-4-14.2-5.4-20.8-5.6a91 91 0 0 0-29 3.1c-1.2-12.5-.4-42.5-2.5-49.7-11 0-18.9 0-27.7-.3-10.7-.3-18.2 0-26-.3 2.4 10.4 2.4 18 1 28.7-2 14.6-4.2 30.5-.1 46.5 5 0 36.1 1 45 1M410 230.8c-.4 18-1 30.2-.6 46.3H465M372.9 189.6c9.2-10.9 16-17.2 26.4-27.6a48.2 48.2 0 0 1 26.9-13.7"/><path stroke="#000" stroke-linecap="round" stroke-linejoin="round" stroke-width="2" d="M589.3 189c4.1 0 10.7 1 16.4 1 6.3 28.6-3.5 47.2-.6 74.9-8 .3-21-1.3-26.8-1.3M477 204c-3.9 0-12.9.1-13.8-.2 1.8 10.4-.1 23.8-1.3 32.4-2.2 16.5.3 27.1 3.1 41 7.8 0 47.4-.3 52.6.3M589.3 265.2c0 5.1.7 7.2 2.2 12.6-8.9-.2-15-.3-22.3-.7"/><path stroke="#000" stroke-linecap="round" stroke-linejoin="round" stroke-width="2" d="M581 241.3c-.5 10.7-1.5 22-8 31.1-4.9 7-16 15.4-24.3 9.4M531.4 238.8c-8.8 3.1-19.7 1.4-27.3 4.7-7.3 3.1 1.2 17 21.4 12.9-2.1 4.3-4.2 8.6-5.7 13.2-.8 2.3-3.6 6.8-1.4 9.6 2.3 3 8.6.8 11-1 4-3.2 6.8-7.7 9.9-11.7"/><path stroke="#000" stroke-linecap="round" stroke-linejoin="round" stroke-width="2" d="M561.6 267c-3.7 6.4-5.6 10.2-10.3 13.2a13.4 13.4 0 0 1-12 1.7M469.8 134.4c1 1 3.3 3.3 4.5 4.7-.2 6.1-7 20.3-10.4 20.2-.8 0-13.6-5.9-16.5-7.2-3.9-1.8-4.7-3-5.4-1.7-2.5 3.3-8.3 13.5-9.4 13-2.9-.5-7.3-21.5-7.6-25.7"/><path stroke="#000" stroke-linecap="round" stroke-linejoin="round" stroke-width="2" d="M458.8 127c17 18.5 33.9-4.2 38.5-12.8 4.1-7.5 8.4-15 6.4-23.6-1.8-8-7.4-12.7-15.5-12.6 1.7-6-3.1-13-8.3-16-11.4-7-26.3-10.4-39-14.5-6-2-25.9-7.3-30.6 1.8-4.7 8.9 6.3 14.8 12.2 17.8 6 3 23.7 10 33.4 11.8-3 5.6-8.5 13.8-4.6 20.3 5.9 9.7 14.8-2 24.5 2.4 8 3.5 10.3 11.1 5.1 17.5-4.9 6.2-14.6 4.2-19-1-2 7-5 10.4-14.4 13.2-6.3 2-6.9 6.8-6.7 13-4.2-5.5-9.3-6.6-14.6-7.2-6.4-.8-12.5 2.2-19.8-3.2"/><path stroke="#000" stroke-linecap="round" stroke-linejoin="round" stroke-width="2" d="M402.1 89.3c-5.6-3.1-6-10-2-12.4 3.4-2.2 7.2-.2 10 1.8a35 35 0 0 1 7.1-14.2M367.4 93.6c6 2 7.3 2.3 15.4 4.7 8.8 2.6 9.6 26.9 1.1 27.1"/><path stroke="#000" stroke-linecap="round" stroke-linejoin="round" stroke-width="2" d="M245.4 131.8c16.5-.1 69-3.6 84.3-4 6.4-.2 13.7-.7 20-1.2 4.4-.4 10.7 0 14.4-2.8 3.2-2.5 4-12 5-15.4 2-7 9.8-7.4 13-.7 2.8 6.1 2.1 18.6 0 25-2.3 7.4-5.7 10.9-11.1 13.7M316.7 83.6l-16.4-3.9c-4.9-.9-9.8-1.8-14.6-3-10-2.5-18.3-4.2-25-5.3 4.8 4 6.3 12 7 17.7.5 6-.3 12-2.4 17.6-4.2 10.8-14.4 17.9-26 14.3-12.2-3.7-17.2-15.9-18-27.7-.4-8.8 7.6-22.3 18-18a17.8 17.8 0 0 1 9 24.4c5.2.7 12.6.7 12.2.7"/><path stroke="#000" stroke-linecap="round" stroke-linejoin="round" stroke-width="2" d="M245.4 131.8c-13.7.7-20-7.3-22.6-28.3M285.5 96.1c1 5 .8 11.1-.9 15.6-1.5 4.1-4.2 9.5-6.6 11.8M299 120.5a30.2 30.2 0 0 0 3.3-15.9M316.2 112c.5 2.8-.7 6.3-1.4 8.2M265.5 80.1c-8-1.7-18.2-3.3-27-5.2M426.9 79.9c-3.5 2.9-8.4 3.3-10.6 1.9-2.2-1.5-4.5-4-4-9.2M473.4 109.6c-1.7 0-4 .7-5.7 1.2M406.9 121.6c-6.2-1.7-6.7-11.3-5-14.6 2.4-4.7 9-3.5 11.5.4 2.3 3.7 3.9 17.1-6.5 14.2Z"/><path stroke="#000" stroke-linecap="round" stroke-linejoin="round" stroke-width="2" d="M406.1 133.7c-8-6-18.5-24-4.3-44M409.9 230.2c-18.9 14.3-47.5 34-73.1 18.4-12-7.3-16.4-18.3-17.7-32.6-2-21.2-1.8-59.7-.3-68.6 0-.2 10.2 2.3 28.3 2 7 0 16-.6 23.9-3.2 1.6 7.3 1.9 39.4 1.9 43.6"/><path stroke="#000" stroke-linecap="round" stroke-linejoin="round" stroke-width="2" d="M319 147.4c-5.6-2.2-7.7-12.7-7-18M493 198.8c2.9 11.6-1.5 19.2-.6 30.5M513.8 229.3c-2.5-12 1.3-21.7-1-29.9M488.3 264.8c-.1 0-.3 4.1.7 6.4M504.7 265.2c0 1.3.6 3.1 1.9 5.7M352 81.8c1-2.4 4.8-3 7.3-2 4.3 2 6.3 7.4 7.5 11.5 1.2 4 1.2 10.6 0 13.6-1.4 3.2-5.1 4.9-7.8 3.6"/><path stroke="#000" stroke-linecap="round" stroke-linejoin="round" stroke-width="2" d="M343.6 97.5c.6 3.5 2 9 .7 12.6-1.3 3.9-5.7 4-8.3 1.5-4.8-4.5-5.1-11-6.2-17.5.6 5.1 3.4 17.9-2.7 18.3-6.2.5-8.3-7.9-9-11.6-1-5.2-2.2-11.9-1-17.2 1.7-6.9 8.2-6.2 11.1-1.2.4-3.2 2.3-5.2 6-5 2.5 0 5.5 2 5.6 5-1-2.5-.5-4.5 2-5.6 7.7-3.5 11.5 6.4 13.6 14.4 1.1 4.3 4 13.2 2.3 17.6-2 5.2-10 5.7-13-4.9M359.2 126c-5.2 1.7-9.4 5.8-9 10.5M551.3 267c-3.3 5-6.1 10.5-11.4 13.7-4.7 2.9-8.8 2.6-13-.7"/></svg>