<svg width="128" height="112" viewBox="0 0 128 112" fill="none" xmlns="http://www.w3.org/2000/svg">
<path d="M28.6 65.7001C27.7105 67.0126 26.9724 68.4215 26.4 69.9001C29.5 70.1001 34.5 70.0001 38 69.9001C38.8 68.6001 39.2 67.3001 39.9 65.9001C36.4 65.4001 31.2 65.5001 28.6 65.7001ZM24.2 73.8001L22.1 78.0001C25.2 78.2001 30.2 78.1001 33.7 78.0001C34.5 76.7001 34.9 75.5001 35.5 74.0001C32 73.6001 26.8 73.7001 24.3 73.8001M19.7 82.2001C18.9 83.6001 18.1 85.0001 17.5 86.4001C20.6 86.6001 25.6 86.5001 29.1 86.4001C29.9 85.1001 30.3 83.9001 31 82.4001C27.5 82.0001 22.3 82.1001 19.7 82.2001ZM46.3 29.7001C46.5 27.4001 46.4 21.4001 46.3 18.1001C44.3 18.1001 41.4 18.0001 39.9 18.1001C39.7 19.1001 39.9 27.6001 39.9 29.7001C42 29.8001 44.2 29.9001 46.3 29.7001ZM39.5 36.6001C39.5 39.0001 39.2 43.3001 39.3 46.9001L46.5 47.1001C46.4 43.6001 46.4 40.1001 46.5 36.4001C44.1993 36.2254 41.8867 36.2924 39.6 36.6001M45.1 65.5001C44.5 66.9001 43.3 68.3001 43.2 69.8001C46.1 69.8001 46.2 70.3001 49.1 70.1001C48.3768 68.6314 47.4325 67.2823 46.3 66.1001C45.7 65.6001 45.4 65.0001 45.1 65.8001M41.8 74.0001C41.7 75.1001 40 76.8001 40.1 78.2001H49.1L51.4 78.4001C51.2 77.5001 52.6 74.7001 51.9 74.3001C51.2 73.8001 49.1 74.0001 48.3 73.9001C47.2 73.7001 45.9 73.6001 44.8 73.6001C44 73.6001 42.2 73.4001 41.7 74.1001M37.7 86.6001C37.5 86.6001 38 84.7001 38.1 84.6001L39.1 83.4001C38.8 83.8001 39.4 84.9001 39.7 85.3001C40 85.9001 40.5 86.4001 41.1 86.9001C40.6 86.9001 40.2 86.7001 39.7 86.6001H37.7ZM92.3 65.5001C92 65.5001 91.8 65.5001 91.6 65.7001C92.1953 66.317 92.8675 66.8547 93.6 67.3001L95.1 68.3001L95.8 68.9001C96.1 69.1001 96.1 69.4001 96.3 69.7001C96.6 70.0001 97.1 70.1001 97.5 70.1001C97.8 70.1001 100.5 69.9001 100.4 69.8001C100.123 68.8502 99.7196 67.942 99.2 67.1001C98.9 66.5001 98.7 65.5001 97.9 65.5001L95.9 65.6001H93.6C93.2 65.6001 92.7 65.4001 92.3 65.5001ZM105.1 78.0001C105.3 77.0001 104.3 76.0001 104 75.2001L103.3 74.0001C103 73.6001 102.9 73.7001 102.3 73.7001C101.8 73.8001 101.3 73.9001 100.7 73.8001C100.3 73.8001 99.9 73.6001 99.5 73.8001L100.5 75.0001L101.2 76.4001C101.5 76.9001 101.7 77.6001 102.2 78.0001C102.8 78.5001 104.3 78.2001 105.1 78.0001ZM109.3 86.3001C109.7 85.4001 108.5 84.4001 108.1 83.7001C107.7 83.1001 107.5 82.2001 106.7 82.1001C105.9 82.0001 105 82.3001 104.2 82.2001C104.7 82.8001 104.8 83.7001 104.9 84.4001L105.3 86.6001L107.3 86.5001C107.4 86.5001 109.2 86.5001 109.3 86.3001Z" fill="black"/>
<path d="M105 98.1996H109C113.1 98.1996 120.7 98.9996 123.1 95.0996C126.4 89.7996 123.1 85.2996 121.5 82.2996C114.5 70.1996 109.2 62.4996 105.1 52.8996C103.6 49.3996 105.4 14.6996 105.4 13.2996C105.4 1.29961 98.2 1.09961 92.6 1.09961C84 1.09961 86.1 1.29961 79.6 1.29961L50.5 1.39961C36.3 1.39961 31.5 0.599609 27.1 4.09961C22.1 8.19961 23.3 13.0996 23.3 22.0996C23.3 26.7996 24.5 46.3996 24.5 50.5996C24.5 55.5996 23 57.0996 20.5 61.3996C16.8 67.6996 13.2 73.6996 8.90004 79.5996C6.40004 83.0996 2.30004 88.0996 3.20004 92.6996C4.20004 97.9996 9.20004 98.1996 14.2 98.1996C19.6 98.1996 34.3 97.9996 55 98.0996" stroke="black" stroke-width="2" stroke-linecap="round" stroke-linejoin="round"/>
<path d="M65.6998 71C62.6998 65.7 53.6998 54.7 47.4998 57.7C42.3998 60.2 44.5998 64.2 46.8998 67.1C48.2998 68.9 54.0998 77.8 56.5998 80.7M75.8998 69.7C72.0998 65.4 67.8998 60.3 60.8998 63.4M31.9998 52.5L31.7998 16.5C31.7998 8.6 36.7998 9.5 42.6998 9.5C52.9998 9.5 75.4998 9 86.8998 9C89.1998 9 93.4998 9.1 94.8998 10.8C96.8998 13.3 96.1998 17.9 96.1998 22L96.3998 51.8L31.9998 52.5Z" stroke="black" stroke-width="2" stroke-linecap="round" stroke-linejoin="round"/>
<path d="M87.4001 70.9003C84.8001 67.7003 77.8001 58.6003 68.6001 63.2003" stroke="black" stroke-width="2" stroke-linecap="round" stroke-linejoin="round"/>
<path d="M62.3999 85.5999C57.5999 79.5999 50.8999 78.3999 45.8999 77.7999C39.5999 76.9999 35.9999 84.6999 42.5999 87.7999C43.8999 88.4999 46.9999 89.5999 48.2999 90.3999C51.9999 92.5999 53.7999 97.0999 56.8999 100.1C59.1999 102.3 61.6999 104.3 64.4999 105.9C70.5127 109.086 77.1958 110.8 83.9999 110.9C95.5999 111.4 103.7 108.6 105.3 95.4999C106.4 86.5999 104 78.9999 96.5999 69.9999C94.4999 67.4999 85.6999 60.9999 80.0999 63.5999" stroke="black" stroke-width="2" stroke-linecap="round" stroke-linejoin="round"/>
<path d="M73.0002 75.5001C76.3002 74.7001 81.8002 73.9001 86.3002 74.1001M45.8002 65.7001H45.1002M45.0002 65.7001C44.3002 67.0001 43.5002 68.4001 43.0002 69.9001C45.1002 70.0001 45.5002 70.2001 48.7002 70.1001M51.4002 78.3001C51.4002 77.4001 51.7002 75.6001 51.9002 74.2001C49.6002 73.9001 44.6002 73.9001 42.1002 74.1001M42.0002 74.0001C41.2002 75.4001 40.5002 76.8001 39.9002 78.3001H41.9002M39.0002 83.7001C38.2002 85.1001 38.6002 84.7001 37.6002 86.7001L40.6002 86.8001M24.2002 73.8001L22.1002 78.0001C25.2002 78.2001 30.2002 78.1001 33.7002 78.0001C34.5002 76.7001 34.9002 75.5001 35.5002 74.0001C32.0002 73.6001 26.8002 73.7001 24.3002 73.8001M91.3002 65.7001C94.8002 65.4001 96.0002 65.6001 98.3002 65.7001M98.4002 65.7001C99.2002 67.0001 100 68.4001 100.6 69.9001H96.6002M99.8002 73.8001H102.9M103 73.8001L105.2 78.0001H102.2M104 82.1001L107.3 82.2001C108.1 83.6001 108.9 85.0001 109.5 86.4001C107.4 86.5001 108.1 86.7001 105.4 86.6001M63.0002 18.8001L52.3002 19.0001M77.2002 18.6001L83.0002 18.4001M52.7002 25.2001L68.4002 25.1001M39.5002 36.6001C39.5002 39.0001 39.2002 43.3001 39.3002 46.9001L46.5002 47.1001C46.4002 43.6001 46.4002 40.1001 46.5002 36.4001C44.1995 36.2254 41.8869 36.2924 39.6002 36.6001M52.2002 36.4001L67.9002 36.6001M78.6002 36.2001H82.3002M5.7002 92.6001L50.5002 92.4001M105.6 93.3001H113.5M28.6002 65.7001C27.7107 67.0126 26.9726 68.4215 26.4002 69.9001C29.5002 70.1001 34.5002 70.0001 38.0002 69.9001C38.8002 68.6001 39.2002 67.3001 39.9002 65.9001C36.4002 65.4001 31.2002 65.5001 28.6002 65.7001ZM19.7002 82.2001C18.8002 83.6001 18.1002 85.0001 17.5002 86.4001C20.6002 86.6001 25.6002 86.5001 29.1002 86.4001C29.9002 85.1001 30.3002 83.9001 31.0002 82.4001C27.5002 82.0001 22.3002 82.1001 19.7002 82.2001ZM46.3002 29.7001C46.5002 27.4001 46.4002 21.4001 46.3002 18.1001C44.3002 18.1001 41.4002 18.0001 39.9002 18.1001C39.7002 19.1001 39.9002 27.6001 39.9002 29.7001C42.0002 29.8001 44.2002 29.9001 46.3002 29.7001Z" stroke="black" stroke-width="2" stroke-linecap="round" stroke-linejoin="round"/>
</svg>
