<svg xmlns="http://www.w3.org/2000/svg" fill="none" viewBox="0 0 121 138" height="138" width="121">
<path fill="#95BF47" d="M105.684 26.9211C105.636 26.6237 105.492 26.3503 105.273 26.1445C105.054 25.9384 104.773 25.8116 104.474 25.7836C103.991 25.7056 93.3834 24.9679 93.3834 24.9679L85.2953 16.8408C84.5686 16.0254 82.9533 16.2661 82.3428 16.437C82.2656 16.437 80.7275 16.9223 78.2196 17.7416C75.7771 10.6511 71.4569 4.14311 63.8518 4.14311H63.2023C61.0189 1.30848 58.3527 0 56.0918 0C38.3775 0.0775824 29.9299 22.2809 27.2636 33.6273L14.8818 37.4443C11.0832 38.6597 10.9402 38.7492 10.438 42.3873L0 123.283L78.2467 138L120.655 128.813C120.655 128.735 105.765 27.698 105.688 26.929L105.684 26.9211ZM73.8797 19.1086C71.9091 19.7609 69.6289 20.4131 67.2486 21.1469V19.6833C67.3258 16.0254 66.7732 12.383 65.6333 8.90365C69.5982 9.51749 72.2644 13.9907 73.8797 19.1086ZM60.8567 9.84362C62.1513 13.676 62.789 17.7146 62.6268 21.7644V22.4946L48.9467 26.7659C51.6247 16.7204 56.5594 11.7541 60.8492 9.88636L60.8567 9.84362ZM55.601 4.90026C56.4128 4.91966 57.1971 5.17216 57.8659 5.63047C52.1581 8.30203 46.1257 15.0431 43.5363 28.5403L32.7162 31.872C35.7689 21.6286 42.8911 4.87691 55.5935 4.87691L55.601 4.90026Z"></path>
<path fill="#5E8E3E" d="M104.482 25.7777C103.999 25.7001 93.3909 24.9623 93.3909 24.9623L85.3024 16.8349C85.005 16.5242 84.5993 16.3536 84.1704 16.3496L78.2656 137.983L120.673 128.795L105.695 26.9892C105.595 26.3678 105.108 25.8707 104.485 25.7737L104.482 25.7777Z"></path>
<path fill="white" d="M63.8447 49.3564L58.5812 64.9663C55.4009 63.4132 51.919 62.586 48.387 62.5199C40.1287 62.5199 39.7305 67.7233 39.7305 69.0279C39.7305 76.1338 58.2605 78.8675 58.2605 95.6192C58.2605 108.791 49.9247 117.248 38.7568 117.248C25.3241 117.248 18.4453 108.872 18.4453 108.872L22.0163 96.9123C22.0163 96.9123 29.0495 103.009 35.0468 103.009C35.7639 103.037 36.4788 102.919 37.149 102.661C37.8189 102.403 38.4298 102.012 38.9445 101.509C39.4592 101.007 39.8667 100.405 40.1427 99.7393C40.4186 99.0741 40.5573 98.3594 40.5498 97.6385C40.5498 88.2801 25.3356 87.8764 25.3356 72.5927C25.3356 59.7399 34.5561 47.2168 53.09 47.2168C60.3741 47.3256 63.8561 49.3525 63.8561 49.3525L63.8447 49.3564Z"></path>
</svg>
