<svg width="128" height="112" viewBox="0 0 128 112" fill="none" xmlns="http://www.w3.org/2000/svg">
<g clip-path="url(#clip0_2213_9085)">
<mask id="mask0_2213_9085" style="mask-type:luminance" maskUnits="userSpaceOnUse" x="0" y="0" width="128" height="112">
<path d="M112 0H16C7.16344 0 0 7.16344 0 16V96C0 104.837 7.16344 112 16 112H112C120.837 112 128 104.837 128 96V16C128 7.16344 120.837 0 112 0Z" fill="white"/>
</mask>
<g mask="url(#mask0_2213_9085)">
<path d="M31 27.5004C29.6 25.3004 27 23.5004 24.8 22.3004C21.6 20.5004 17.8 19.7004 14.4 21.3004C11.4 22.5004 8.9 23.7004 6.7 26.3004C4.5 28.8004 4 31.7004 4 34.9004C4 40.9004 6.4 46.3004 9.4 51.4004C11.1 54.1004 12.5 56.5004 14.4 59.1004C15.5 60.5004 17.4 62.6004 18.6 62.4004C18.8572 62.5008 19.1428 62.5008 19.4 62.4004C21.3 62.0004 22.8 59.0004 23.8 57.5004C25.7 54.8004 27.6 52.0004 29 49.0004C30.2 46.4004 31.7 43.7004 32.4 41.0004C33.5 37.0004 33.6 31.0004 31.1 27.5004H31ZM25.3 40.6004C24.1263 41.5696 22.7643 42.2847 21.3 42.7004C20.5 43.0004 19.3 42.7004 18.5 43.2004C18.1 43.4004 15.4 43.4004 14.2 43.0004C12 42.3004 9.6 39.3004 8.7 37.2004C8.2021 35.7747 8.05124 34.2509 8.25993 32.7553C8.46862 31.2596 9.03085 29.8353 9.9 28.6004C13.2 23.8004 20.1 23.6004 24.3 27.3004C27.9 30.4004 29.1 37.1004 25.3 40.6004ZM81.6 8.00039C80.1 6.00039 77.8 4.10039 75.6 2.90039C72.3 1.10039 68.6 0.300394 65.2 1.90039C62.2 3.10039 59.7 4.30039 57.4 6.90039C55.3 9.30039 54.8 12.3004 54.8 15.5004C54.8 21.5004 57.1 26.9004 60.2 31.9004C61.9 34.7004 63.2 37.1004 65.2 39.7004C66.2 41.1004 68.2 43.2004 69.3 43.0004C69.4415 43.0638 69.5949 43.0966 69.75 43.0966C69.9051 43.0966 70.0585 43.0638 70.2 43.0004C72 42.6004 73.5 39.6004 74.5 38.1004C76.5 35.4004 78.3 32.6004 79.7 29.6004C80.9 27.0004 82.4 24.3004 83.2 21.6004C84.2 17.6004 84.1 11.6004 81.6 8.10039V8.00039ZM76 21.3004C75 22.2004 73.2 23.0004 72 23.4004C71.2 23.7004 70 23.4004 69.1 23.9004C68.8 24.1004 66.1 24.1004 64.9 23.7004C62.6 23.0004 60.2 20.0004 59.4 17.8004C58.3 15.1004 58.8 11.8004 60.5 9.3004C61.3144 8.18973 62.3559 7.26522 63.5554 6.58837C64.7548 5.91151 66.0846 5.49783 67.4563 5.37485C68.8281 5.25187 70.2103 5.4224 71.511 5.87511C72.8117 6.32781 74.0011 7.05231 75 8.00039C78.7 11.1004 79.9 17.8004 76 21.3004ZM95 60.6004C93.4 58.4004 91.1 56.6004 88.8 55.3004C87.2748 54.355 85.5526 53.7731 83.7666 53.5997C81.9805 53.4263 80.1786 53.6661 78.5 54.3004C75.5803 55.3474 72.9442 57.0592 70.8 59.3004C68.8279 61.757 67.8309 64.8546 68 68.0004C68 74.0004 70.3 79.4004 73.4 84.4004C75.1 87.2004 76.5 89.6004 78.4 92.2004C79.4 93.6004 81.4 95.7004 82.6 95.5004C82.8572 95.6008 83.1428 95.6008 83.4 95.5004C85.3 95.1004 86.8 92.0004 87.8 90.6004C89.7 87.9004 91.6 85.1004 93 82.1004C94.1 79.5004 95.7 76.8004 96.4 74.1004C97.4 70.1004 97.3 64.1004 94.8 60.6004H95ZM89.4 73.6004C88.5 74.6004 86.7 75.4004 85.4 75.8004C84.6 76.1004 83.4 75.8004 82.6 76.3004C82.2 76.5004 79.5 76.5004 78.3 76.1004C76.1 75.4004 73.7 72.4004 72.8 70.2004C71.7 67.4004 72.3 64.2004 74 61.7004C77.3 56.9004 84.1 56.7004 88.4 60.3004C92 63.5004 93.2 70.3004 89.4 73.7004V73.6004ZM107.9 54.0004C111.8 46.0004 113.2 37.0004 105.3 30.4004C103.9 29.3004 102.3 28.4004 100.7 27.8004C99.4 27.3004 96.9 26.6004 95.7 27.2004C97 29.2004 98.7 31.0004 99.9 33.0004C103.494 39.4482 106.122 46.3889 107.7 53.6004" fill="black"/>
<path d="M20 20.5002C30.4038 12.9899 42.8698 8.86949 55.7 8.7002M84.3 17.3002L86.6 18.8002C103 30.3002 113.5 56.9002 105.9 76.3002C102.396 85.7076 96.2928 93.9264 88.3 100C82.638 104.678 75.9876 108.008 68.8506 109.74C61.7136 111.473 54.2764 111.562 47.1 110C38.0891 108.833 29.5036 105.468 22.1 100.2C16.1016 95.3528 10.9921 89.4988 7.00002 82.9002C1.00002 73.2002 0.400021 63.4002 1.70002 52.5002C2.20002 48.5002 3.10002 44.5002 4.40002 40.5002" stroke="black" stroke-width="1.6" stroke-linecap="round" stroke-linejoin="round"/>
<path d="M27.8001 51.0006C32.8001 42.4006 36.7001 31.4006 27.6001 24.0006C19.0001 16.8006 5.20014 21.6006 4.10014 33.0006C3.60014 38.2006 5.10014 43.1006 7.40014 47.8006C9.40014 51.9006 14.2001 59.1006 16.4001 61.5006C17.6001 62.9006 19.3001 63.7006 21.3001 61.0006C23.3001 58.1006 26.0001 54.2006 27.8001 51.0006Z" stroke="black" stroke-width="1.6" stroke-linecap="round" stroke-linejoin="round"/>
<path d="M53.1 9C51.6 24.2 51.9 49.7 53.3 71.1C53.8 78.4 54.7 105.2 55 110.8M50 9C44.6 11.5 36 18.8 31.5 28M24.7 56.4C23.7 60.7 23.6 66.7 24.9 73.4C25.9 77.9 27 82.9 28.8 87.2C30.4 91.2 38.9 106.4 45.2 109.7M78.8 31.3C84.3 39.6 85 46.3 84.8 53.3M77.3 90.6C75.2934 98.519 70.7224 105.551 64.3 110.6M8.1 33.7C7.6 40.2 15.1 45.5 21.4 43C23.044 42.4365 24.4948 41.4188 25.5843 40.0649C26.6739 38.7109 27.3576 37.076 27.5564 35.3495C27.7552 33.623 27.461 31.8755 26.7077 30.3094C25.9544 28.7432 24.7729 27.4224 23.3 26.5C21.8977 25.5017 20.2551 24.8946 18.5407 24.7409C16.8262 24.5872 15.1018 24.8925 13.5443 25.6254C11.9869 26.3584 10.6525 27.4925 9.67814 28.9115C8.7038 30.3305 8.1246 31.9832 8 33.7H8.1Z" stroke="black" stroke-width="1.6" stroke-linecap="round" stroke-linejoin="round"/>
<path d="M48.3001 110C46.7001 96.9999 42.6001 100.4 46.2001 91.3999C49.3001 83.5999 53.7001 82.4999 56.9001 85.8999C60.6001 89.9999 68.1001 85.8999 72.9001 83.6999M65.0001 39.6999C62.7001 40.6999 59.8001 41.3999 59.0001 41.9999C57.4001 42.9999 57.4001 43.8999 56.7001 45.4999C55.7001 47.6999 55.4001 50.8999 53.3001 52.4999C50.0001 54.8999 43.6001 50.6999 40.1001 56.1999C38.7001 58.4999 37.3001 62.6999 38.6001 65.4999C39.9001 68.2999 41.6001 69.2999 41.9001 74.6999C42.0001 78.1999 33.9001 75.2999 31.4001 79.0999C29.5001 81.8999 24.6001 79.2999 23.1001 86.3999C22.4001 89.5999 26.3001 91.7999 25.9001 94.9999C25.7001 97.5999 24.1001 97.2999 21.3001 98.8999M75.6001 36.5999C81.0001 38.3999 81.7001 41.6999 83.8001 43.1999C85.5676 44.1414 87.5057 44.7194 89.5001 44.8999C92.1001 45.2999 93.5001 44.4999 95.5001 43.3999C98.9001 41.6999 100.2 37.3999 101.6 36.9999M95.7001 61.5999C95.7001 57.5999 96.9001 56.7999 100.1 55.1999C103.4 53.3999 105.1 55.1999 107 50.9999M11.4001 54.7999C9.80013 58.5999 1.00013 56.9999 1.20013 62.2999M2.70013 72.0999C6.00013 69.4999 6.50013 75.5999 8.00013 76.2999C11.9001 78.0999 13.2001 74.2999 15.5001 72.2999C17.7001 70.4999 22.2001 72.0999 24.6001 70.7999C31.1001 67.4999 28.3001 60.7999 29.8001 57.0999C33.2001 49.0999 36.2001 50.2999 40.2001 44.8999C46.2001 36.7999 39.8001 32.0999 33.4001 32.8999M39.1001 11.4999C40.0001 13.7999 35.7001 16.1999 40.1001 17.8999C42.6001 18.8999 45.4001 17.3999 47.3001 19.8999C48.5001 21.3999 48.1001 23.7999 49.8001 25.4999C53.5001 29.1999 53.8001 29.6999 57.1001 27.5999M12.3001 34.3999C12.5001 39.0999 21.4001 39.1999 22.5001 34.6999M11.5001 31.2999C11.8001 29.2999 15.9001 28.5999 16.2001 31.4999M19.1001 31.3999C19.4001 29.1999 23.1001 29.3999 23.4001 31.3999M78.5001 31.4999C83.5001 22.8999 87.3001 11.8999 78.3001 4.49994C69.7001 -2.70006 55.9001 2.19994 54.8001 13.4999C54.3001 18.6999 55.8001 23.5999 58.0001 28.2999C60.0001 32.3999 65.0001 39.6999 67.0001 41.9999C68.2001 43.3999 70.0001 44.1999 72.0001 41.4999C74.0001 38.5999 76.7001 34.6999 78.5001 31.4999Z" stroke="black" stroke-width="1.6" stroke-linecap="round" stroke-linejoin="round"/>
<path d="M58.7999 14.2002C58.2999 20.7002 65.6999 26.0002 72.0999 23.5002C73.7376 22.9253 75.1793 21.8988 76.2584 20.5393C77.3375 19.1798 78.01 17.5428 78.1982 15.8173C78.3865 14.0919 78.0827 12.3483 77.3222 10.7882C76.5616 9.22797 75.3751 7.91478 73.8999 7.00024C72.4998 6.05286 70.8763 5.48785 69.1905 5.36123C67.5047 5.23461 65.8151 5.55078 64.2891 6.27838C62.7632 7.00599 61.4539 8.11978 60.491 9.50933C59.5282 10.8989 58.9452 12.516 58.7999 14.2002Z" stroke="black" stroke-width="1.6" stroke-linecap="round" stroke-linejoin="round"/>
<path d="M63.0001 14.9001C63.2001 19.6001 72.1001 19.7001 73.1001 15.2001M62.1001 11.9001C62.5001 9.80005 66.5001 9.10005 66.8001 12.0001M69.8001 12.0001C70.1001 9.70005 73.8001 9.90005 74.1001 12.0001M107.9 54C111.8 46 113.2 37.0001 105.3 30.4001C102.3 28.0001 99.3001 27.0001 95.9001 27.1001M92.0001 84.0001C97.0001 75.4001 100.9 64.4 91.8001 57C83.2001 49.8 69.4001 54.6 68.3001 66C67.8001 71.2 69.3001 76.1001 71.6001 80.8001C74.1355 85.6328 77.115 90.2192 80.5001 94.5001C81.7001 95.9001 83.5001 96.7001 85.5001 94.0001C87.5001 91.0001 90.2001 87.2001 92.0001 84.0001Z" stroke="black" stroke-width="1.6" stroke-linecap="round" stroke-linejoin="round"/>
<path d="M72.2999 66.7002C71.7999 73.2002 79.1999 78.5002 85.5999 76.0002C87.2376 75.4253 88.6793 74.3988 89.7584 73.0393C90.8375 71.6798 91.51 70.0428 91.6982 68.3173C91.8865 66.5919 91.5827 64.8483 90.8222 63.2882C90.0616 61.728 88.8751 60.4148 87.3999 59.5002C85.9998 58.5529 84.3763 57.9879 82.6905 57.8612C81.0047 57.7346 79.3151 58.0508 77.7891 58.7784C76.2632 59.506 74.9539 60.6198 73.991 62.0093C73.0282 63.3989 72.4452 65.016 72.2999 66.7002Z" stroke="black" stroke-width="1.6" stroke-linecap="round" stroke-linejoin="round"/>
<path d="M76.4 67.4006C76.7 72.1006 85.6 72.2006 86.6 67.7006M75.6 64.3006C76 62.3006 80 61.6006 80.3 64.5006M83.3 64.4006C83.6 62.2006 87.3 62.4006 87.6 64.4006M1.5 64.5006C11.9 64.7006 22.7 65.0006 32.5 65.0006L68.5 64.9006M97 65.0006C100.7 65.0006 104.3 64.4006 108 64.6006M33.3 35.9006C38.2 36.8006 57.3 37.3006 63 37.1006M76 36.3006C85.7 36.3006 92 35.8006 100.2 34.1006M14.5 92.1006C19.8575 91.6539 25.2261 91.3538 30.6 91.2006C38 91.0006 49.8 91.2006 54.3 91.2006C61.3 91.2006 70.3 91.4006 78.2 91.6006M86.9 92.3006C89.9 92.7006 92.9 93.0006 94.9 93.6006" stroke="black" stroke-width="1.6" stroke-linecap="round" stroke-linejoin="round"/>
</g>
</g>
<defs>
<clipPath id="clip0_2213_9085">
<rect width="128" height="112" fill="white"/>
</clipPath>
</defs>
</svg>
